<svg width="472" height="326" viewBox="0 0 472 326" fill="none" xmlns="http://www.w3.org/2000/svg">
<path d="M445.192 153.401V139.391C445.192 138.068 444.932 136.758 444.426 135.536C443.919 134.313 443.177 133.203 442.242 132.267C441.307 131.332 440.196 130.59 438.974 130.084C437.752 129.577 436.443 129.317 435.12 129.317H407.268C404.597 129.317 402.034 128.256 400.146 126.366C398.257 124.477 397.195 121.915 397.195 119.243V105.233C397.195 99.6691 409.406 95.159 414.969 95.159H416.092C418.763 95.159 421.325 94.0976 423.214 92.2084C425.103 90.3193 426.164 87.757 426.164 85.0853V71.0746C426.164 69.7517 425.904 68.4418 425.397 67.2196C424.891 65.9974 424.149 64.8869 423.214 63.9515C422.279 63.0161 421.168 62.274 419.946 61.7678C418.724 61.2615 417.414 61.001 416.092 61.001H75.7743C74.4516 61.001 73.1418 61.2615 71.9197 61.7678C70.6976 62.274 69.5872 63.0161 68.6519 63.9515C67.7166 64.8869 66.9746 65.9974 66.4684 67.2196C65.9622 68.4418 65.7017 69.7517 65.7017 71.0746V85.0853C65.7017 86.4082 65.9622 87.7181 66.4684 88.9403C66.9746 90.1625 67.7166 91.273 68.6519 92.2084C69.5872 93.1439 70.6976 93.8859 71.9197 94.3922C73.1418 94.8984 74.4516 95.159 75.7743 95.159C78.4457 95.159 81.0078 96.2203 82.8967 98.1095C84.7857 99.9986 85.8469 102.561 85.8469 105.233V119.243C85.8469 121.915 84.7857 124.477 82.8968 126.366C81.0078 128.256 78.4458 129.317 75.7744 129.317H36.8226C35.4999 129.317 34.1901 129.577 32.968 130.084C31.7459 130.59 30.6355 131.332 29.7002 132.267C28.7649 133.203 28.0229 134.313 27.5167 135.536C27.0105 136.758 26.75 138.068 26.75 139.391V153.401C26.75 156.073 27.8112 158.635 29.7002 160.524C31.5892 162.414 34.1512 163.475 36.8226 163.475H52.1067C54.7781 163.475 57.3401 164.536 59.2291 166.425C61.1181 168.315 62.1793 170.877 62.1793 173.549V187.559C62.1793 188.882 61.9188 190.192 61.4126 191.414C60.9064 192.637 60.1644 193.747 59.2291 194.682C58.2938 195.618 57.1834 196.36 55.9613 196.866C54.7392 197.372 53.4294 197.633 52.1067 197.633H52.0697C49.3983 197.633 46.8363 198.694 44.9473 200.583C43.0583 202.473 41.9971 205.035 41.9971 207.707V221.717C41.9971 223.04 42.2576 224.35 42.7638 225.572C43.27 226.794 44.012 227.905 44.9473 228.84C45.8826 229.776 46.993 230.518 48.2151 231.024C49.4371 231.53 50.747 231.791 52.0697 231.791H54.281C56.9524 231.791 59.5144 232.852 61.4034 234.741C63.2924 236.631 64.3536 239.193 64.3536 241.865V255.875C64.3536 258.547 63.2924 261.109 61.4034 262.998C59.5145 264.888 56.9524 265.949 54.281 265.949H41.0933C39.7705 265.949 38.4607 266.209 37.2386 266.716C36.0166 267.222 34.9062 267.964 33.9708 268.899C33.0355 269.835 32.2936 270.945 31.7874 272.168C31.2812 273.39 31.0206 274.7 31.0206 276.023V290.033C31.0206 292.705 32.0819 295.267 33.9708 297.156C35.8598 299.046 38.4218 300.107 41.0933 300.107H413.798C416.47 300.107 419.032 299.046 420.921 297.156C422.81 295.267 423.871 292.705 423.871 290.033V276.023C423.871 274.7 423.61 273.39 423.104 272.168C422.598 270.945 421.856 269.835 420.921 268.899C419.985 267.964 418.875 267.222 417.653 266.716C416.431 266.209 415.121 265.949 413.798 265.949H405.065C402.393 265.949 399.831 264.888 397.942 262.998C396.053 261.109 394.992 258.547 394.992 255.875V241.865C394.992 239.193 396.053 236.631 397.942 234.741C399.831 232.852 402.393 231.791 405.065 231.791H425.657C428.329 231.791 430.891 230.73 432.78 228.84C434.669 226.951 435.73 224.389 435.73 221.717V207.707C435.73 205.035 434.669 202.473 432.78 200.583C430.891 198.694 428.329 197.633 425.657 197.633H419.411C416.739 197.633 414.177 196.572 412.288 194.682C410.399 192.793 409.338 190.231 409.338 187.559V173.549C409.338 170.877 410.399 168.315 412.288 166.425C414.177 164.536 416.739 163.475 419.411 163.475H435.12C437.791 163.475 440.353 162.414 442.242 160.524C444.131 158.635 445.192 156.073 445.192 153.401Z" fill="#D9E2FF"/>
<path d="M156.483 128.853C156.481 133.961 154.451 138.86 150.84 142.473C147.229 146.086 142.332 148.118 137.224 148.123H65.2571C61.5934 148.123 58.0589 146.769 55.3332 144.32C52.6075 141.872 50.8831 138.502 50.4914 134.859C50.0997 131.216 51.0685 127.557 53.2114 124.585C55.3544 121.613 58.5202 119.538 62.1002 118.76C62.3866 114.425 64.3091 110.36 67.4786 107.389C70.6481 104.417 74.8279 102.761 79.1722 102.755C80.9313 102.755 82.6793 103.035 84.3509 103.583C86.887 98.677 90.8645 94.6657 95.7484 92.0884C100.632 89.5111 106.188 88.4915 111.669 89.1667C117.15 89.842 122.292 92.1797 126.404 95.8654C130.517 99.5511 133.402 104.408 134.672 109.783C137.391 109.415 140.158 109.634 142.786 110.424C145.414 111.214 147.842 112.557 149.908 114.364C151.974 116.17 153.63 118.397 154.764 120.897C155.898 123.396 156.484 126.109 156.483 128.853Z" fill="#B0C6FF"/>
<path d="M281.627 242.006L267.319 220.733C278.854 210.484 286.123 196.28 287.689 180.929C289.256 165.578 285.006 150.198 275.779 137.83C266.553 125.462 253.022 117.006 237.862 114.135C222.702 111.265 207.017 114.187 193.908 122.326C180.799 130.464 171.221 143.226 167.067 158.087C162.914 172.948 164.487 188.827 171.476 202.584C178.466 216.341 190.362 226.974 204.813 232.381C219.264 237.788 235.218 237.575 249.519 231.784L263.466 252.428C264.151 253.621 265.063 254.667 266.152 255.507C267.24 256.347 268.483 256.964 269.81 257.323C271.137 257.683 272.522 257.777 273.886 257.601C275.249 257.426 276.565 256.983 277.757 256.298C278.95 255.614 279.995 254.702 280.835 253.613C281.675 252.524 282.292 251.281 282.652 249.954C283.011 248.627 283.105 247.242 282.93 245.878C282.754 244.515 282.311 243.199 281.627 242.006Z" fill="#004AAD"/>
<path d="M226.527 218.501C250.791 218.501 270.46 198.83 270.46 174.564C270.46 150.298 250.791 130.626 226.527 130.626C202.263 130.626 182.594 150.298 182.594 174.564C182.594 198.83 202.263 218.501 226.527 218.501Z" fill="#F2F4F7"/>
<path d="M226.526 130.626C224.428 130.628 222.334 130.779 220.258 131.079C230.715 132.585 240.28 137.811 247.198 145.798C254.115 153.784 257.923 163.997 257.923 174.564C257.923 185.13 254.115 195.343 247.198 203.33C240.28 211.316 230.715 216.542 220.258 218.049C226.23 218.91 232.316 218.532 238.135 216.937C243.955 215.342 249.384 212.566 254.083 208.781C258.782 204.995 262.652 200.283 265.45 194.936C268.248 189.589 269.915 183.724 270.346 177.705C270.778 171.685 269.965 165.642 267.958 159.951C265.951 154.259 262.794 149.043 258.683 144.626C254.571 140.209 249.594 136.686 244.062 134.277C238.529 131.869 232.56 130.626 226.526 130.626Z" fill="#C3C6CF"/>
<path d="M202.995 182.219C206.75 182.219 209.794 179.174 209.794 175.419C209.794 171.664 206.75 168.619 202.995 168.619C199.239 168.619 196.195 171.664 196.195 175.419C196.195 179.174 199.239 182.219 202.995 182.219Z" fill="#E1E3E3"/>
<path d="M248.508 170.902C251.108 170.902 253.215 168.794 253.215 166.194C253.215 163.594 251.108 161.486 248.508 161.486C245.908 161.486 243.801 163.594 243.801 166.194C243.801 168.794 245.908 170.902 248.508 170.902Z" fill="#C3C6CF"/>
<path d="M222.228 160.084C223.962 160.084 225.367 158.679 225.367 156.946C225.367 155.213 223.962 153.808 222.228 153.808C220.495 153.808 219.09 155.213 219.09 156.946C219.09 158.679 220.495 160.084 222.228 160.084Z" fill="#C3C6CF"/>
<path d="M223.388 201.88C225.122 201.88 226.527 200.475 226.527 198.742C226.527 197.009 225.122 195.604 223.388 195.604C221.655 195.604 220.25 197.009 220.25 198.742C220.25 200.475 221.655 201.88 223.388 201.88Z" fill="#C3C6CF"/>
<path d="M241.523 191.494C243.867 191.494 245.768 189.593 245.768 187.248C245.768 184.903 243.867 183.002 241.523 183.002C239.178 183.002 237.277 184.903 237.277 187.248C237.277 189.593 239.178 191.494 241.523 191.494Z" fill="#E1E3E3"/>
<path d="M193.784 217.539C195.116 217.539 196.196 216.459 196.196 215.126C196.196 213.794 195.116 212.714 193.784 212.714C192.451 212.714 191.371 213.794 191.371 215.126C191.371 216.459 192.451 217.539 193.784 217.539Z" fill="#F2F4F7"/>
<path d="M272.87 151.108C274.202 151.108 275.282 150.028 275.282 148.696C275.282 147.363 274.202 146.283 272.87 146.283C271.537 146.283 270.457 147.363 270.457 148.696C270.457 150.028 271.537 151.108 272.87 151.108Z" fill="#F2F4F7"/>
<path d="M271.406 200.388C269.942 203.495 268.147 206.436 266.052 209.158C263.885 211.865 261.454 214.348 258.794 216.571C256.077 218.758 253.156 220.677 250.069 222.3C243.826 225.506 236.971 227.344 229.962 227.691C228.214 227.707 226.471 227.772 224.729 227.666C222.991 227.568 221.259 227.375 219.542 227.086C212.702 225.988 206.203 223.343 200.539 219.353C206.636 222.2 213.166 224.008 219.859 224.704C226.451 225.347 233.106 224.802 239.506 223.093C242.69 222.226 245.793 221.088 248.782 219.692C251.761 218.247 254.621 216.568 257.335 214.672C260.028 212.703 262.564 210.528 264.921 208.167C267.261 205.728 269.428 203.129 271.406 200.388Z" fill="#DFE2EB"/>
<path d="M175.774 184.835C173.358 175.941 173.551 166.539 176.33 157.752C177.707 153.325 179.686 149.11 182.212 145.223C183.478 143.279 184.877 141.425 186.4 139.675C187.91 137.913 189.537 136.254 191.269 134.709C193.014 133.178 194.853 131.757 196.775 130.455C197.76 129.843 198.71 129.174 199.731 128.62L201.242 127.759L202.797 126.979C203.827 126.446 204.912 126.028 205.969 125.556C207.057 125.159 208.122 124.7 209.233 124.368C211.427 123.635 213.671 123.062 215.948 122.653C220.485 121.852 225.11 121.672 229.695 122.119C234.233 122.582 238.68 123.699 242.897 125.437C238.551 124.322 234.09 123.716 229.604 123.629C225.174 123.562 220.752 124.025 216.433 125.008C212.151 126.017 208.012 127.554 204.11 129.584C202.164 130.592 200.279 131.714 198.466 132.946C196.667 134.195 194.946 135.553 193.312 137.012C186.7 142.851 181.644 150.242 178.598 158.521C175.548 166.936 174.579 175.964 175.774 184.835Z" fill="#DFE2EB"/>
<path d="M142.224 220.003V237.844C142.224 253.339 143.163 254.513 159.83 256.156V262.73H104.9V256.156C122.505 254.513 123.679 253.104 123.679 237.609V220.003H61.707V212.959C84.0077 181.265 108.186 146.99 131.661 114.356H142.224V208.733H165.229V220.003L142.224 220.003ZM123.679 139.007C108.891 160.606 92.4583 184.552 76.2613 208.733H123.679V139.007Z" fill="#004AAD"/>
<path d="M374.149 220.003V237.844C374.149 253.339 375.089 254.513 391.756 256.156V262.73H336.825V256.156C354.431 254.513 355.605 253.104 355.605 237.609V220.003H293.633V212.959C315.933 181.265 340.112 146.99 363.586 114.356H374.149V208.733H397.155V220.003L374.149 220.003ZM355.605 139.007C340.816 160.606 324.384 184.552 308.187 208.733H355.605V139.007Z" fill="#004AAD"/>
<path d="M411.126 74.5811C411.123 81.3097 408.45 87.7621 403.693 92.5211C398.937 97.28 392.486 99.9564 385.758 99.9624H290.967C286.141 99.9628 281.486 98.179 277.896 94.9541C274.306 91.7293 272.034 87.2909 271.518 82.4924C271.002 77.6939 272.279 72.8741 275.101 68.9596C277.924 65.0451 282.094 62.3124 286.809 61.2868C287.186 55.5766 289.718 50.2229 293.893 46.3092C298.068 42.3956 303.573 40.2142 309.295 40.2065C311.612 40.2066 313.915 40.5745 316.117 41.2964C319.457 34.8347 324.696 29.5512 331.129 26.1565C337.562 22.7618 344.88 21.4188 352.099 22.3082C359.317 23.1976 366.091 26.2768 371.507 31.1314C376.924 35.986 380.724 42.3832 382.397 49.4625C385.979 48.9784 389.623 49.2664 393.084 50.3071C396.545 51.3479 399.744 53.1172 402.465 55.4964C405.187 57.8756 407.367 60.8096 408.861 64.1013C410.355 67.393 411.127 70.9662 411.126 74.5811Z" fill="#B0C6FF"/>
<path d="M410.991 273.039C410.989 278.148 408.959 283.047 405.348 286.66C401.737 290.273 396.84 292.305 391.732 292.309H319.765C316.101 292.31 312.567 290.955 309.841 288.507C307.115 286.059 305.391 282.689 304.999 279.046C304.608 275.403 305.576 271.744 307.719 268.772C309.862 265.8 313.028 263.725 316.608 262.946C316.894 258.611 318.817 254.546 321.986 251.575C325.156 248.604 329.336 246.948 333.68 246.942C335.439 246.942 337.187 247.221 338.859 247.769C341.395 242.864 345.372 238.852 350.256 236.275C355.14 233.698 360.696 232.678 366.177 233.353C371.657 234.029 376.8 236.366 380.912 240.052C385.025 243.738 387.91 248.594 389.179 253.969C391.899 253.602 394.665 253.82 397.293 254.61C399.921 255.4 402.35 256.744 404.416 258.55C406.482 260.356 408.137 262.584 409.272 265.083C410.406 267.582 410.992 270.295 410.991 273.039Z" fill="#B0C6FF"/>
<path d="M47.999 284.348C54.9862 284.348 60.6504 278.684 60.6504 271.696C60.6504 264.708 54.9862 259.043 47.999 259.043C41.0119 259.043 35.3477 264.708 35.3477 271.696C35.3477 278.684 41.0119 284.348 47.999 284.348Z" fill="#B0C6FF"/>
<path d="M63.9219 257.983C67.5614 257.983 70.5118 255.032 70.5118 251.392C70.5118 247.752 67.5614 244.802 63.9219 244.802C60.2824 244.802 57.332 247.752 57.332 251.392C57.332 255.032 60.2824 257.983 63.9219 257.983Z" fill="#B0C6FF"/>
<path d="M96.6723 286.571C99.8223 286.571 102.376 284.018 102.376 280.867C102.376 277.717 99.8223 275.163 96.6723 275.163C93.5223 275.163 90.9688 277.717 90.9688 280.867C90.9688 284.018 93.5223 286.571 96.6723 286.571Z" fill="#B0C6FF"/>
<path d="M83.4301 267.761C85.5295 267.761 87.2313 266.059 87.2313 263.96C87.2313 261.86 85.5295 260.158 83.4301 260.158C81.3308 260.158 79.6289 261.86 79.6289 263.96C79.6289 266.059 81.3308 267.761 83.4301 267.761Z" fill="#B0C6FF"/>
<path d="M74.4796 292.309C79.5122 292.309 83.592 288.229 83.592 283.195C83.592 278.162 79.5122 274.082 74.4796 274.082C69.4469 274.082 65.3672 278.162 65.3672 283.195C65.3672 288.229 69.4469 292.309 74.4796 292.309Z" fill="#B0C6FF"/>
<path d="M223.097 101.552C230.084 101.552 235.748 95.8876 235.748 88.8997C235.748 81.9119 230.084 76.2471 223.097 76.2471C216.11 76.2471 210.445 81.9119 210.445 88.8997C210.445 95.8876 216.11 101.552 223.097 101.552Z" fill="#B0C6FF"/>
<path d="M198 107.257C201.15 107.257 203.704 104.703 203.704 101.553C203.704 98.4025 201.15 95.8486 198 95.8486C194.85 95.8486 192.297 98.4025 192.297 101.553C192.297 104.703 194.85 107.257 198 107.257Z" fill="#B0C6FF"/>
<path d="M191.011 88.8996C196.043 88.8996 200.123 84.8194 200.123 79.7862C200.123 74.753 196.043 70.6729 191.011 70.6729C185.978 70.6729 181.898 74.753 181.898 79.7862C181.898 84.8194 185.978 88.8996 191.011 88.8996Z" fill="#B0C6FF"/>
</svg>
